<?xml version="1.0" encoding="utf-8"?>
<!-- Generator: Adobe Illustrator 21.1.0, SVG Export Plug-In . SVG Version: 6.00 Build 0)  -->
<svg version="1.1" id="Layer_1" xmlns="http://www.w3.org/2000/svg" xmlns:xlink="http://www.w3.org/1999/xlink" x="0px" y="0px"
	 viewBox="0 0 300 300" style="enable-background:new 0 0 300 300;" xml:space="preserve">
<style type="text/css">
	.st0{fill:url(#SVGID_1_);}
	.st1{fill:url(#SVGID_2_);stroke:#DFDFDF;stroke-width:0.5;stroke-miterlimit:10;}
	.st2{fill:#AF1F40;stroke:#D1D1D1;stroke-miterlimit:10;}
	.st3{fill:#891A37;}
	.st4{fill:none;stroke:#DFDFDF;stroke-width:0.5;stroke-miterlimit:10;}
	.st5{fill:url(#SVGID_3_);}
	.st6{fill:url(#SVGID_4_);}
	.st7{fill:url(#SVGID_5_);}
</style>
<g>
	<g>
		
			<linearGradient id="SVGID_1_" gradientUnits="userSpaceOnUse" x1="271" y1="47.1125" x2="29" y2="47.1125" gradientTransform="matrix(-1 0 0 1 300 33.925)">
			<stop  offset="1.082549e-07" style="stop-color:#F7F9F6"/>
			<stop  offset="5.000010e-02" style="stop-color:#F3F4F0"/>
			<stop  offset="0.95" style="stop-color:#EBEBE8"/>
			<stop  offset="1" style="stop-color:#F7F6F1"/>
		</linearGradient>
		<path class="st0" d="M271,124H29l110-82.4c6.4-4.7,14.7-4.7,21.1,0L271,124z"/>
	</g>
</g>
<linearGradient id="SVGID_2_" gradientUnits="userSpaceOnUse" x1="28.5" y1="99" x2="271.5" y2="99" gradientTransform="matrix(1 0 0 -1 0 300)">
	<stop  offset="1.082549e-07" style="stop-color:#F7F9F6"/>
	<stop  offset="5.000010e-02" style="stop-color:#F3F4F0"/>
	<stop  offset="0.95" style="stop-color:#EBEBE8"/>
	<stop  offset="1" style="stop-color:#F7F6F1"/>
</linearGradient>
<rect x="28.5" y="124" class="st1" width="243" height="154"/>
<g>
	
		<rect x="95.6" y="118.1" transform="matrix(0.9499 -0.3125 0.3125 0.9499 -51.282 58.1912)" class="st2" width="120.5" height="142"/>
	
		<rect x="104.6" y="144" transform="matrix(0.9499 -0.3125 0.3125 0.9499 -38.9216 51.718)" class="st3" width="74.5" height="6.5"/>
	
		<rect x="109.1" y="157.5" transform="matrix(0.9499 -0.3125 0.3125 0.9499 -42.9054 53.7757)" class="st3" width="74.5" height="6.5"/>
	
		<rect x="113.5" y="170.9" transform="matrix(0.9499 -0.3125 0.3125 0.9499 -46.8892 55.8333)" class="st3" width="74.5" height="6.5"/>
	
		<rect x="117.9" y="184.4" transform="matrix(0.9499 -0.3125 0.3125 0.9499 -50.8731 57.891)" class="st3" width="74.5" height="6.5"/>
	
		<rect x="122.3" y="197.9" transform="matrix(0.9499 -0.3125 0.3125 0.9499 -54.8569 59.9486)" class="st3" width="74.5" height="6.5"/>
</g>
<path class="st4" d="M319.3,155.3"/>
<path class="st4" d="M29,124"/>
<g>
	
		<image style="overflow:visible;opacity:5.000000e-02;" width="129" height="162" xlink:href="A693489B.png"  transform="matrix(1 0 0 1 25 119)">
	</image>
	<g>
		<linearGradient id="SVGID_3_" gradientUnits="userSpaceOnUse" x1="28.5784" y1="200.9704" x2="150" y2="200.9704">
			<stop  offset="1.082549e-07" style="stop-color:#F7F9F6"/>
			<stop  offset="5.000010e-02" style="stop-color:#F3F4F0"/>
			<stop  offset="0.95" style="stop-color:#EBEBE8"/>
			<stop  offset="1" style="stop-color:#F7F6F1"/>
		</linearGradient>
		<polygon class="st5" points="28.6,277.8 150,201 28.7,124.2 		"/>
		<polygon class="st4" points="28.6,277.8 150,201 28.7,124.2 		"/>
	</g>
</g>
<g>
	
		<image style="overflow:visible;opacity:5.000000e-02;" width="129" height="162" xlink:href="A693489E.png"  transform="matrix(1 0 0 1 146 119)">
	</image>
	<g>
		
			<linearGradient id="SVGID_4_" gradientUnits="userSpaceOnUse" x1="149.5" y1="201.0841" x2="270.75" y2="201.0841" gradientTransform="matrix(-1 0 0 -1 421 402)">
			<stop  offset="1.082549e-07" style="stop-color:#F7F9F6"/>
			<stop  offset="5.000010e-02" style="stop-color:#F3F4F0"/>
			<stop  offset="0.95" style="stop-color:#EBEBE8"/>
			<stop  offset="1" style="stop-color:#F7F6F1"/>
		</linearGradient>
		<polygon class="st6" points="271.5,124 150.3,200.8 271.3,277.8 		"/>
		<polygon class="st4" points="271.5,124 150.3,200.8 271.3,277.8 		"/>
	</g>
</g>
<g>
	
		<image style="overflow:visible;opacity:5.000000e-02;enable-background:new    ;" width="1042" height="392" xlink:href="73DAFE49.png"  transform="matrix(0.2395 0 0 0.2395 25.2227 187.1788)">
	</image>
	<g>
		<path class="st4" d="M270.9,278H29.1l111-82.4c6.4-4.7,14.7-4.7,21.1,0L270.9,278z"/>
		
			<linearGradient id="SVGID_5_" gradientUnits="userSpaceOnUse" x1="150" y1="22" x2="150" y2="107.925" gradientTransform="matrix(1 0 0 -1 0 300)">
			<stop  offset="1.082549e-07" style="stop-color:#F7F9F6"/>
			<stop  offset="5.000010e-02" style="stop-color:#F3F4F0"/>
			<stop  offset="0.95" style="stop-color:#EBEBE8"/>
			<stop  offset="1" style="stop-color:#F7F6F1"/>
		</linearGradient>
		<path class="st7" d="M270.9,278H29.1l111-82.4c6.4-4.7,14.7-4.7,21.1,0L270.9,278z"/>
	</g>
</g>
</svg>
