<?xml version="1.0" encoding="utf-8"?>
<!-- Generator: Adobe Illustrator 21.1.0, SVG Export Plug-In . SVG Version: 6.00 Build 0)  -->
<svg version="1.1" id="Layer_1" xmlns="http://www.w3.org/2000/svg" xmlns:xlink="http://www.w3.org/1999/xlink" x="0px" y="0px"
	 viewBox="0 0 255.8 195.4" style="enable-background:new 0 0 255.8 195.4;" xml:space="preserve">
<style type="text/css">
	.st0{fill:url(#SVGID_1_);stroke:#DFDFDF;stroke-width:0.5;stroke-miterlimit:10;}
	.st1{fill:url(#SVGID_2_);}
	.st2{fill:none;stroke:#DFDFDF;stroke-width:0.5;stroke-miterlimit:10;}
	.st3{fill:url(#SVGID_3_);}
	.st4{fill:#C51F42;}
	.st5{opacity:0.75;}
	.st6{fill:#A01F3E;}
	.st7{fill:#FFFFFF;}
	.st8{font-family:'ArialMT';}
	.st9{font-size:50.145px;}
</style>
<linearGradient id="SVGID_1_" gradientUnits="userSpaceOnUse" x1="6.3" y1="286.6805" x2="249.3" y2="286.6805" gradientTransform="matrix(1 0 0 1 0 -171.3805)">
	<stop  offset="1.082549e-07" style="stop-color:#F7F9F6"/>
	<stop  offset="5.000010e-02" style="stop-color:#F3F4F0"/>
	<stop  offset="0.95" style="stop-color:#EBEBE8"/>
	<stop  offset="1" style="stop-color:#F7F6F1"/>
</linearGradient>
<rect x="6.3" y="38.3" class="st0" width="243" height="154"/>
<g>
	
		<image style="overflow:visible;opacity:5.000000e-02;enable-background:new    ;" width="1042" height="392" xlink:href="../envelope svg/73DAFE49.png"  transform="matrix(0.2395 0 0 0.2395 3.0036 101.4886)">
	</image>
	<g>
		
			<linearGradient id="SVGID_2_" gradientUnits="userSpaceOnUse" x1="127.8" y1="363.6805" x2="127.8" y2="277.7555" gradientTransform="matrix(1 0 0 1 0 -171.3805)">
			<stop  offset="1.082549e-07" style="stop-color:#F7F9F6"/>
			<stop  offset="5.000010e-02" style="stop-color:#F3F4F0"/>
			<stop  offset="0.95" style="stop-color:#EBEBE8"/>
			<stop  offset="1" style="stop-color:#F7F6F1"/>
		</linearGradient>
		<path class="st1" d="M248.7,192.3H6.9l111-82.4c6.4-4.7,14.7-4.7,21.1,0L248.7,192.3z"/>
		<path class="st2" d="M248.7,192.3H6.9l111-82.4c6.4-4.7,14.7-4.7,21.1,0L248.7,192.3z"/>
	</g>
</g>
<g>
	
		<image style="overflow:visible;opacity:0.1;enable-background:new    ;" width="1071" height="417" xlink:href="../envelope svg/73DAFE4B.png"  transform="matrix(0.2388 0 0 0.2388 0 33.4708)">
	</image>
	<g>
		
			<linearGradient id="SVGID_3_" gradientUnits="userSpaceOnUse" x1="127.8" y1="209.6805" x2="127.8" y2="295.6055" gradientTransform="matrix(1 0 0 1 0 -171.3805)">
			<stop  offset="1.082549e-07" style="stop-color:#F7F9F6"/>
			<stop  offset="5.000010e-02" style="stop-color:#F3F4F0"/>
			<stop  offset="0.95" style="stop-color:#EBEBE8"/>
			<stop  offset="1" style="stop-color:#F7F6F1"/>
		</linearGradient>
		<path class="st3" d="M6.8,38.3h242l-110,82.4c-6.4,4.7-14.7,4.7-21.1,0L6.8,38.3z"/>
		<path class="st2" d="M6.8,38.3h242l-110,82.4c-6.4,4.7-14.7,4.7-21.1,0L6.8,38.3z"/>
	</g>
</g>
<g>
	<g>
		<circle class="st4" cx="216.3" cy="34" r="33"/>
	</g>
	<g class="st5">
		<circle class="st6" cx="216.3" cy="34" r="33"/>
	</g>
</g>
<text transform="matrix(1 0 0 1 201.411 51.9683)" class="st7 st8 st9">1</text>
</svg>
