<?xml version="1.0" encoding="utf-8"?>
<!-- Generator: Adobe Illustrator 21.1.0, SVG Export Plug-In . SVG Version: 6.00 Build 0)  -->
<svg version="1.1" id="Layer_1" xmlns="http://www.w3.org/2000/svg" xmlns:xlink="http://www.w3.org/1999/xlink" x="0px" y="0px"
	 viewBox="0 0 1405 1504" style="enable-background:new 0 0 1405 1504;" xml:space="preserve">
<style type="text/css">
	.st0{fill:none;}
</style>
<g id="Layer_x0020_1">
	<path d="M1389,1504h-294.7h-16v-16V849.4c0-34.3-4.6-63.1-19-82.3c-13.8-18.4-38-29.2-78.1-29.2c-129.8,0-162.3,98.4-166.5,113.4
		V1488v16l-16,0H504.1h-16v-16V454.4v-16h16h294.6h16v16v68.4c21.9-14.2,50.9-30.7,86.3-45.2c51.8-21.3,117.1-38.4,193.3-38.4
		c60.8,0,160.8,21.7,231.2,117.9c46.3,63.2,79.5,158.6,79.5,301V1488v16L1389,1504L1389,1504z"/>
	<path d="M163.8,309.5c-42.6,0-81.2-17.4-109.2-45.5C26.7,236,9.4,197.3,9.4,154.4c0-42.6,17.3-81.2,45.2-109.2
		C82.6,17.3,121.2,0,163.8,0l0.1,0.1c42.6,0.4,81.2,17.9,109,45.7c27.9,27.9,45.2,66.4,45.2,108.6c0,42.9-17.3,81.6-45.2,109.7
		C245.1,292.2,206.4,309.5,163.8,309.5L163.8,309.5z"/>
	<polygon points="311.6,1504 16,1504 0,1504 0,1488 0,454.4 0,438.4 16,438.4 311.6,438.4 327.6,438.4 327.6,454.4 327.6,1488 
		327.6,1504 	"/>
</g>
<rect x="-321.5" y="-272" class="st0" width="2048" height="2048"/>
</svg>
