<?xml version="1.0" encoding="utf-8"?>
<!-- Generator: Adobe Illustrator 21.1.0, SVG Export Plug-In . SVG Version: 6.00 Build 0)  -->
<svg version="1.1" id="IFTTT_Applet_Logo" xmlns="http://www.w3.org/2000/svg" xmlns:xlink="http://www.w3.org/1999/xlink" x="0px"
	 y="0px" viewBox="0 0 584.3 584.3" style="enable-background:new 0 0 584.3 584.3;" xml:space="preserve">
<path d="M292.2,0C130.8,0,0,130.8,0,292.2s130.8,292.2,292.2,292.2s292.2-130.8,292.2-292.2S453.5,0,292.2,0z M444.9,186.9
	c-1.7,27.7-53.2,234.7-53.2,234.7s-3.1,12.1-14.1,12.5c-4,0.1-8.9-0.7-14.7-5.7c-11.6-10-38.5-29.1-63.5-46.4l-28.4,22.8l0,0
	c-0.4,0.4-0.8,0.8-1.2,1.2c-0.8,0.8-1.5,1.5-2.3,2.2c-1.6,1.6-3.2,3.1-4.7,4.6c-0.9,0.8-1.7,1.6-2.5,2.4c-0.8,0.8-1.6,1.5-2.4,2.2
	c-0.5,0.5-1,0.9-1.5,1.4c-1.9,1.8-3.7,3.3-5.1,4.6c-0.2,0.2-0.4,0.3-0.5,0.5c-2.3,1.9-3.8,3-4.4,3c-0.7,0-1.4-0.2-2.1-0.5
	c-3.9-2-7.1-8.6-7.1-8.6L203,323.4c-0.4,0-0.6-0.1-0.6-0.1l-72.7-23.7c0,0-8.7-3.5-5.9-11.5c0.6-1.6,1.7-3,5.2-5.5
	C145.1,271.4,427.3,170,427.3,170s8-2.7,12.7-0.9c2.2,0.8,3.5,1.7,4.7,5.1c0.4,1.2,0.7,3.8,0.6,6.4
	C445.3,182.5,445,184.2,444.9,186.9z"/>
</svg>
