<?xml version="1.0" encoding="utf-8"?>
<!-- Generator: Adobe Illustrator 21.1.0, SVG Export Plug-In . SVG Version: 6.00 Build 0)  -->
<svg version="1.1" id="Layer_1" xmlns="http://www.w3.org/2000/svg" xmlns:xlink="http://www.w3.org/1999/xlink" x="0px" y="0px"
	 viewBox="0 0 228.5 263.9" style="enable-background:new 0 0 228.5 263.9;" xml:space="preserve">
<style type="text/css">
	.st0{fill:#3A4675;stroke:#FFFFFF;stroke-miterlimit:10;}
	.st1{fill:#FFFFFF;}
</style>
<polygon class="st0" points="114.3,0.6 0.5,66.3 0.5,197.6 114.3,263.3 228,197.6 228,66.3 "/>
<path class="st1" d="M90.9,187.1l-1.6-1.3c-5.1-4.2-5.8-11.8-1.6-16.9L163,77.3c4.2-5.1,11.8-5.8,16.9-1.6l1.6,1.3
	c5.1,4.2,5.8,11.8,1.6,16.9l-75.4,91.6C103.5,190.6,95.9,191.3,90.9,187.1z"/>
<path class="st1" d="M106.7,186.7l-0.5,0.5c-4.6,4.8-12.2,5-17,0.4L55,155c-4.8-4.6-5-12.2-0.4-17l0.5-0.5c4.6-4.8,12.2-5,17-0.4
	l34.2,32.7C111.1,174.3,111.3,181.9,106.7,186.7z"/>
</svg>
