<?xml version="1.0" encoding="utf-8"?>
<!-- Generator: Adobe Illustrator 21.1.0, SVG Export Plug-In . SVG Version: 6.00 Build 0)  -->
<svg version="1.1" id="Layer_1" xmlns="http://www.w3.org/2000/svg" xmlns:xlink="http://www.w3.org/1999/xlink" x="0px" y="0px"
	 viewBox="0 0 228.5 263.9" style="enable-background:new 0 0 228.5 263.9;" xml:space="preserve">
<style type="text/css">
	.st0{fill:#3A4675;stroke:#FFFFFF;stroke-miterlimit:10;}
	.st1{fill:#FFFFFF;}
</style>
<polygon class="st0" points="114.3,0.6 0.5,66.3 0.5,197.6 114.3,263.3 228,197.6 228,66.3 "/>
<g>
	<path class="st1" d="M158.9,125.8c-0.4,0.1-0.7,0.2-1,0.3c-12.1,3.8-24.2,7.6-36.4,11.5c-2.6,0.8-5.2,0.9-7.8,0
		c-10.4-3.3-20.9-6.6-31.3-9.9c-2.1-0.7-4.3-1.3-6.4-2c-0.1,0.2-0.2,0.4-0.2,0.5c-1.4,5.2-2.8,10.3-4.2,15.5
		c-0.9,3.5-0.7,6.9,0.7,10.2c1.6,3.7,4.2,6.7,7.2,9.3c11.7,10,25.4,14.2,40.6,13.6c7.9-0.3,15.5-2.3,22.6-5.7
		c7.4-3.5,13.4-8.7,18.5-15c2.1-2.6,3.1-5.5,2.7-8.8C163.2,138.5,161.1,132.2,158.9,125.8z"/>
	<path class="st1" d="M203.6,101.3c-0.6,1.5-1.8,2.3-3.3,2.7c-26.7,8.4-53.3,16.8-80,25.2c-1.4,0.4-2.8,0.4-4.2,0
		c-11.9-3.8-23.8-7.5-35.7-11.2c-0.2-0.1-0.4-0.1-0.8-0.3c1.1-0.7,2.1-1.3,3.1-1.8c7.6-3.9,15.6-6.6,23.8-8.6
		c4.4-1,8.9-1.8,13.4-2.8c2-0.4,3.4-2.1,3.4-4.1s-1.2-3.8-3.1-4.2c-0.9-0.2-1.8-0.1-2.7,0.1c-10.1,1.7-20.1,4-29.7,7.9
		c-5.5,2.2-10.8,4.8-15.6,8.3c-3.4,2.5-6,5.7-8.1,9.3c-0.9,1.4-1,2.9,0,4.3c1.9,2.9,1.5,7-1.4,9.7c-1.1,1-1.2,2.3-1.2,3.7
		c0.2,4.1,0.4,8.3,0.4,12.4c-0.1,8.1-0.9,16.1-3.1,23.9c-1.2,4.3-3,8.3-5.8,11.9c-1.9,2.4-4.2,4.1-7.2,4.8c-0.1,0-0.2,0.1-0.3,0.2
		c-1.8,0-3.5,0-5.3,0c-3.3-0.9-6.4-2.3-9.1-4.4c-2.2-1.7-4.1-3.6-6.2-5.5c0-0.1,0-0.1,0-0.2c0.2-0.2,0.5-0.4,0.7-0.6
		c2.7-2.7,5.3-5.4,8-8.1c8.9-9.3,15-20.2,17.7-32.8c0.5-2.3,0.9-4.7-0.6-6.8c-2.7-3.9-1-8.9,2.6-11.2c1.4-0.9,2.4-2.1,3.2-3.5
		c1.3-2.3,2.6-4.7,3.9-7c0.1-0.2,0.3-0.5,0.4-0.7c-0.2-0.1-0.3-0.1-0.5-0.2c-6.1-1.9-12.1-3.9-18.2-5.8c-2.3-0.7-4.6-1.4-6.8-2.2
		c-1.5-0.5-2.3-1.6-2.3-3.2s0.8-2.7,2.3-3.4c0.4-0.2,0.7-0.3,1.1-0.4c26.5-8.4,52.9-16.7,79.4-25.1c1.7-0.5,3.2-0.5,4.9,0
		c13.4,4.3,26.9,8.5,40.4,12.7c13,4.1,26,8.2,39,12.4c1.6,0.5,3,1.2,3.6,2.9C203.6,100.2,203.6,100.7,203.6,101.3z"/>
	<path class="st1" d="M158.9,125.8c2.3,6.4,4.4,12.7,5.1,19.4c0.4,3.3-0.6,6.2-2.7,8.8c-5.1,6.3-11.1,11.5-18.5,15
		c-7.2,3.4-14.7,5.4-22.6,5.7c-15.2,0.6-28.9-3.7-40.6-13.6c-3-2.6-5.6-5.6-7.2-9.3c-1.4-3.3-1.6-6.7-0.7-10.2
		c1.4-5.2,2.8-10.3,4.2-15.5c0-0.1,0.1-0.3,0.2-0.5c2.1,0.7,4.3,1.3,6.4,2c10.4,3.3,20.9,6.6,31.3,9.9c2.6,0.8,5.2,0.8,7.8,0
		c12.1-3.8,24.2-7.7,36.4-11.5C158.2,125.9,158.5,125.9,158.9,125.8z"/>
</g>
</svg>
