<?xml version="1.0" encoding="utf-8"?>
<!-- Generator: Adobe Illustrator 21.1.0, SVG Export Plug-In . SVG Version: 6.00 Build 0)  -->
<svg version="1.1" id="Layer_1" xmlns="http://www.w3.org/2000/svg" xmlns:xlink="http://www.w3.org/1999/xlink" x="0px" y="0px"
	 viewBox="0 0 257.5 297.3" style="enable-background:new 0 0 257.5 297.3;" xml:space="preserve">
<style type="text/css">
	.st0{fill:#4F5E8E;}
	.st1{opacity:0.75;}
	.st2{filter:url(#Adobe_OpacityMaskFilter);}
	.st3{opacity:0.75;mask:url(#SVGID_1_);}
	.st4{fill:#FFFFFF;}
</style>
<g>
	<g>
		<g>
			<g>
				<polygon class="st0" points="128.8,17.3 15,83 15,214.3 128.8,280 242.5,214.3 242.5,83 				"/>
			</g>
			<g class="st1">
				<polygon class="st0" points="128.8,17.3 15,83 15,214.3 128.8,280 242.5,214.3 242.5,83 				"/>
			</g>
		</g>
	</g>
	<defs>
		<filter id="Adobe_OpacityMaskFilter" filterUnits="userSpaceOnUse" x="15" y="17.3" width="227.5" height="262.7">
			
				<feColorMatrix  type="matrix" values="-1 0 0 0 1  0 -1 0 0 1  0 0 -1 0 1  0 0 0 1 0" color-interpolation-filters="sRGB" result="source"/>
		</filter>
	</defs>
	<mask maskUnits="userSpaceOnUse" x="15" y="17.3" width="227.5" height="262.7" id="SVGID_1_">
		<g class="st2">
			<image style="overflow:visible;" width="232" height="267" xlink:href="D55347F4.jpg"  transform="matrix(1 0 0 1 13 15.3)">
			</image>
		</g>
	</mask>
	<g class="st3">
		<g>
			<g>
				<polygon points="128.8,17.3 15,83 15,214.3 128.8,280 242.5,214.3 242.5,83 				"/>
			</g>
			<g class="st1">
				<polygon points="128.8,17.3 15,83 15,214.3 128.8,280 242.5,214.3 242.5,83 				"/>
			</g>
		</g>
	</g>
</g>
<g>
	<image style="overflow:visible;" width="97" height="94" xlink:href="D55347F4.png"  transform="matrix(1 0 0 1 33 117.3)">
	</image>
	<g>
		<path class="st4" d="M39,157.6l47.5,22.1c1.2,0.6,2.5,0.9,3.9,0.9c1.8,0,3.5-0.5,5-1.4c2.7-1.7,4.3-4.6,4.3-7.8v-0.2
			c0-3.6-2.1-6.9-5.3-8.4L64.7,149l29.7-13.8c3.2-1.5,5.3-4.8,5.3-8.4v-0.2c0-3.2-1.6-6.1-4.3-7.8c-1.5-0.9-3.2-1.4-5-1.4
			c-1.3,0-2.7,0.3-3.9,0.9L39,140.4c-3.2,1.5-5.3,4.8-5.3,8.4v0.7C33.6,152.8,35.7,156.1,39,157.6z"/>
	</g>
</g>
<g>
	<image style="overflow:visible;" width="81" height="146" xlink:href="D55347FB.png"  transform="matrix(1 0 0 1 103 90.3)">
	</image>
	<g>
		<path class="st4" d="M105.5,202.5c1.7,2.4,4.5,3.8,7.4,3.8h0.2c4,0,7.6-2.6,8.8-6.4l31.3-96.9c0.9-2.8,0.4-5.9-1.3-8.3
			s-4.5-3.8-7.4-3.8h-0.2c-4,0-7.6,2.6-8.8,6.4l-31.3,96.9C103.3,197.1,103.8,200.2,105.5,202.5z"/>
	</g>
</g>
<g>
	<image style="overflow:visible;" width="97" height="94" xlink:href="D55347F3.png"  transform="matrix(1 0 0 1 157 116.3)">
	</image>
	<g>
		<path class="st4" d="M157.8,126.5c0,3.6,2.1,6.9,5.3,8.4l29.7,13.8l-29.7,13.8c-3.2,1.5-5.3,4.8-5.3,8.4v0.2
			c0,3.2,1.6,6.1,4.3,7.8c1.5,0.9,3.2,1.4,5,1.4c1.3,0,2.7-0.3,3.9-0.9l47.5-22.1c3.2-1.5,5.3-4.8,5.3-8.4v-0.7
			c0-3.6-2.1-6.9-5.3-8.4l-47.6-21.9c-1.2-0.6-2.5-0.9-3.9-0.9c-1.8,0-3.5,0.5-5,1.4c-2.7,1.7-4.3,4.6-4.3,7.8L157.8,126.5
			L157.8,126.5L157.8,126.5z"/>
	</g>
</g>
</svg>
