<?xml version="1.0" encoding="utf-8"?>
<!-- Generator: Adobe Illustrator 21.1.0, SVG Export Plug-In . SVG Version: 6.00 Build 0)  -->
<svg version="1.1" id="Layer_1" xmlns="http://www.w3.org/2000/svg" xmlns:xlink="http://www.w3.org/1999/xlink" x="0px" y="0px"
	 viewBox="0 0 228.5 263.9" style="enable-background:new 0 0 228.5 263.9;" xml:space="preserve">
<style type="text/css">
	.st0{fill:#293656;stroke:#FFFFFF;stroke-miterlimit:10;}
	.st1{fill:#FCF9F9;stroke:#000000;stroke-width:8;}
</style>
<polygon class="st0" points="114.3,0.6 0.5,66.3 0.5,197.6 114.3,263.3 228,197.6 228,66.3 "/>
<g>
	<title>Layer 1</title>
	<g id="svg_1">
		<path id="path641" class="st1" d="M196.7,186.3c0,26.9-32.8-2.1-78.3-2.1c-45.5,0-86.6,28.9-86.6,2.1c0-26.9,36.9-48.7,82.4-48.7
			C159.8,137.6,196.7,159.4,196.7,186.3z"/>
		<path id="path639" class="st1" d="M163.8,93.2c0,28.9-22.2,52.4-49.6,52.4c-27.4,0-49.6-23.5-49.6-52.4
			c0-28.9,22.2-52.4,49.6-52.4C141.6,40.8,163.8,64.2,163.8,93.2z"/>
	</g>
</g>
</svg>
