<?xml version="1.0" encoding="utf-8"?>
<!-- Generator: Adobe Illustrator 21.1.0, SVG Export Plug-In . SVG Version: 6.00 Build 0)  -->
<svg version="1.1" id="Layer_1" xmlns="http://www.w3.org/2000/svg" xmlns:xlink="http://www.w3.org/1999/xlink" x="0px" y="0px"
	 viewBox="0 0 2353 2500" style="enable-background:new 0 0 2353 2500;" xml:space="preserve">
<path d="M950.3,1320.1h210.6V819.7L950.3,1320.1z M1164.5,811l-3.7,8.7l-210.6,500.3H1408L1164.5,811z M1164.5,811l-3.7,8.7
	l-210.6,500.3H1408L1164.5,811z M1160.9,7.1L4.6,419.1l176.7,1529.9l979.6,543.8l995.2-551.2l192.3-1529.9L1160.9,7.1z
	 M1660.8,1900.6l-158.4-366.2H856L711.3,1896l-269.2,4.6l718.7-1599l1.8-4.1l755.3,1607.7L1660.8,1900.6z M950.3,1320.1h457.8
	l-243.5-509l-3.7,8.7L950.3,1320.1z M950.3,1320.1h210.6V819.7L950.3,1320.1z"/>
</svg>
