<?xml version="1.0" encoding="utf-8"?>
<!-- Generator: Adobe Illustrator 21.1.0, SVG Export Plug-In . SVG Version: 6.00 Build 0)  -->
<svg version="1.1" id="Layer_1" xmlns="http://www.w3.org/2000/svg" xmlns:xlink="http://www.w3.org/1999/xlink" x="0px" y="0px"
	 viewBox="0 0 2500 2500" style="enable-background:new 0 0 2500 2500;" xml:space="preserve">
<path d="M1373.8,1105.8h-337.1v-354h311.6c29.7,0,58.3,2.5,85.9,7.4c27.6,4.9,51.9,13.8,73.1,26.5c21.2,12.7,38.2,30.4,50.9,53
	c12.7,22.6,19.1,51.6,19.1,86.9c0,63.6-19.1,109.5-57.2,137.8C1481.9,1091.7,1433.1,1105.8,1373.8,1105.8z"/>
<path d="M1638.8,1548.9c0,39.6-6.7,72.1-20.2,97.5c-13.4,25.4-31.4,45.6-54.1,60.4c-22.6,14.8-48.8,25.4-78.4,31.8
	c-29.7,6.4-60.8,9.5-93.3,9.5h-356.2v-415.5h362.5c72.1,0,130,16.6,173.9,49.8C1616.9,1415.7,1638.8,1471.2,1638.8,1548.9z"/>
<path d="M2177.6,0H322.4C144.3,0,0,144.3,0,322.4v1855.3c0,178,144.3,322.4,322.3,322.4h1855.3c178,0,322.4-144.3,322.4-322.4V322.4
	C2500,144.3,2355.7,0,2177.6,0z M1927.1,1766.2c-29.7,55.8-69.6,101.4-119.8,136.7c-50.2,35.3-107.4,61.5-171.7,78.4
	c-64.3,17-130.4,25.4-198.2,25.4H703.9V493.2h712.3c72.1,0,137.8,6.4,197.2,19.1c59.4,12.7,110.2,33.6,152.6,62.5
	c42.4,29,75.3,67.5,98.6,115.5c23.3,48.1,35,107.4,35,178.1c0,76.3-17.3,139.9-51.9,190.8c-34.6,50.9-85.9,92.6-153.7,125.1
	c93.3,26.8,162.9,73.8,208.8,141c45.9,67.1,68.9,148,68.9,242.7C1971.6,1644.3,1956.8,1710.4,1927.1,1766.2z"/>
</svg>
