<?xml version="1.0" encoding="utf-8"?>
<!-- Generator: Adobe Illustrator 21.1.0, SVG Export Plug-In . SVG Version: 6.00 Build 0)  -->
<svg version="1.1" id="Layer_1" xmlns="http://www.w3.org/2000/svg" xmlns:xlink="http://www.w3.org/1999/xlink" x="0px" y="0px"
	 viewBox="0 0 756 1024" style="enable-background:new 0 0 756 1024;" xml:space="preserve">
<g>
	<g>
		<g>
			<path d="M159.9,871c-28.3,1.9-55.4,8.7-80.3,22.2c-5.9,3.2-9.9,9.8-14.8,14.9c5.3,4,10.1,10.3,16.1,11.7
				c31.4,7.3,62.8,15.7,94.8,19.4c106.8,12.3,214,9.9,321,2c53.9-4,107.7-9.4,160.1-23.9c9.2-2.6,18.3-6.3,26.8-10.7
				c13.7-7.2,16.2-13.8,13-28.4c16.6,6.6,19.4,19.3,6.1,30.8c-17.3,15-38.7,22-60.1,28.6c-52.8,16.3-107.2,24.4-162.1,29.9
				c-83.9,8.4-168,9.2-252.1,4c-66.3-4.1-132.4-10.3-197.5-23.9c-6.4-1.3-12.8-3.8-18.7-6.9c-14.4-7.5-16.2-18.3-4.6-29.5
				c5.4-5.3,11.7-10,18.4-13.7c32.1-18.1,66.8-28.5,103.5-31.6c10.2-0.9,20.7,1.2,31.1,1.8C160.3,868.9,160.1,870,159.9,871z"/>
			<path d="M139.5,994.6c25.1,2.7,48.7,6.6,72.5,7.5c62.3,2.4,124.7,5.4,187,4.7c76.1-0.9,151.9-8.5,226.3-25.4
				c31.1-7.1,61.5-17.2,91.6-27.8c13.8-4.9,26-14.3,38.4-21.5c-1.6,10.4-8.3,19.2-16.9,26.9c-17.1,15.2-37.7,23.7-59,30.7
				c-49.4,16.2-100.6,23.2-152.1,27.9c-75.2,6.9-150.6,8-226,4.1c-46.6-2.4-93.2-5.8-138.6-18c-6.1-1.6-12-4-18-6.1
				C143.3,997.1,142,996,139.5,994.6z"/>
		</g>
		<g>
			<g>
				<path d="M483.6,0c14.5,18.1,22.5,39.3,24.1,62.8c3.1,46.4-16.3,85-43,120.8c-24.8,33.2-55.4,60.4-87.5,86.3
					c-25.1,20.2-48.3,42.1-64.8,70.3c-18.9,32.3-21.5,65.9-5.6,99.7c8.9,18.9,20.6,36.5,31.7,54.3c10.6,17,22,33.4,33,50.2
					c2.3,3.5,3.9,7.4,5.9,11.1c-1,0.8-1.9,1.5-2.9,2.3c-26.9-27.6-54.9-54.3-80.2-83.3c-15.6-17.9-28.9-38.5-39.8-59.7
					c-18.4-35.8-13.1-70.3,11.8-102c21.3-27,47.7-48.4,73.8-70.3c33.2-27.8,67.1-55.2,98.1-85.3c28.4-27.6,46.1-62.4,47.9-103
					C486.9,36.4,484.6,18.4,483.6,0z"/>
				<path d="M419,591.1c3.8-4.9,7.9-9.7,11.4-14.8c20.4-29.7,18.8-58.1-2.8-86.9c-13.2-17.5-26.9-35.4-35.9-55.1
					c-22.1-48.3-10.6-93.8,30.7-133.3c37-35.3,81.8-57.2,128.7-75.4c16.3-6.3,33-11.5,49.5-17.2c0.3,0.8,0.7,1.6,1,2.4
					c-7,4.3-14.4,8.2-21.1,13c-33.3,23.4-67,46.2-99.2,71c-12.7,9.8-22.8,23.4-32.1,36.8c-13.6,19.6-15.1,41.6-3.9,62.7
					c9,17,19.8,33.2,30.9,49c27.3,38.9,26.1,71-5,107C456.6,567.4,439,580.7,419,591.1z"/>
			</g>
			<g>
				<g>
					<path d="M237.1,792c-7.8,14.3-6.2,21,9.1,24.3c19.1,4.2,38.8,6.5,58.3,8.6c57.3,6.1,113.9,0.1,170.2-10.4
						c5.3-1,11.8,0.5,16.8,2.8c15.7,7.1,31,15.2,47.2,23.3c-27.6,12.1-55.9,20.5-85,26c-69.4,13-138.7,14.3-207.1-5.5
						c-14.2-4.1-28.1-10.8-40.5-18.9c-16.6-10.8-15.8-25.1,1-35.6C216.5,800.6,227.1,796.8,237.1,792z"/>
					<path d="M586.6,603.9c-32,25.3-75.2,30.7-118.2,36.6c-81.9,11.2-164.3,15.1-246.8,9.7c-36.2-2.3-72.1-8.6-108.1-13.8
						c-7.7-1.1-15.4-4.7-22.3-8.4c-11.4-6.1-11.5-13.5-1-21.4c2.4-1.8,5-3.3,7.7-4.7c46.2-23.1,94.9-37,146.7-39.7
						c3.2-0.2,6.4,0,9.7,1.1c-18.3,5.7-36.9,10.8-54.9,17.3c-12.5,4.5-24.7,10.1-36.1,16.8c-10.4,6.1-9.6,14.2,2,17.5
						c15.3,4.3,31.2,8.7,47,8.9c59.1,0.8,118.3,2.4,177.2-1C456.8,619.1,524,610.2,586.6,603.9z"/>
					<path d="M214.1,682c-14.8,19-11.9,30.2,12.4,32.9c42.3,4.7,85,7.6,127.6,8.4c52.2,1,103.7-7.8,155-16.7c3.8-0.7,8.7,1,12.3,3.1
						c11.1,6.6,21.9,13.9,33.1,21.1c-1.3,0.6-3.1,1.7-5,2.2c-100,27-201.4,36.4-304.3,21.7c-18.3-2.6-36.2-8.6-54.1-13.7
						c-5.6-1.6-11-4.9-15.9-8.2c-14.6-9.8-15.6-22-1.4-32.1c12-8.5,25.8-14.5,38.8-21.5C213.2,680.2,213.6,681.1,214.1,682z"/>
				</g>
				<path d="M595.5,751.1c3.7-2.4,7.3-4.9,11.1-7.1c31.9-17.8,62.6-37.4,85.7-66.4c14.7-18.5,25.3-38.8,20.4-63.6
					c-6.3-31.5-39.7-54.1-71.4-48.5c-7.5,1.3-14.8,3.2-23.1,3.2c4-2.8,7.6-6.6,12-8.2c32.3-12.2,64.2-12.4,93.9,7.1
					c36.3,23.8,42.4,68.2,15.2,105.2c-21.3,28.9-51.1,46.5-83.4,60.1c-19.2,8.1-39.2,14.3-58.8,21.3
					C596.4,753.1,595.9,752.1,595.5,751.1z"/>
			</g>
		</g>
	</g>
</g>
</svg>
