<?xml version="1.0" encoding="utf-8"?>
<!-- Generator: Adobe Illustrator 21.1.0, SVG Export Plug-In . SVG Version: 6.00 Build 0)  -->
<svg version="1.1" id="Layer_1" xmlns="http://www.w3.org/2000/svg" xmlns:xlink="http://www.w3.org/1999/xlink" x="0px" y="0px"
	 viewBox="0 0 480 249.9" style="enable-background:new 0 0 480 249.9;" xml:space="preserve">
<g>
	<path d="M361.6,90.4h-21.4l-8.2,49.3h19.7c14.8-1.6,27.9-6.6,29.6-34.5C381.4,95.3,373.2,90.4,361.6,90.4L361.6,90.4z"/>
	<path d="M240,0C107.4,0,0,55.9,0,124.9c0,69,107.4,124.9,240,124.9c132.5,0,240-55.9,240-124.9C480,55.9,372.5,0,240,0z
		 M134.8,164.4h-29.6l-6.6,34.5H67.4L93.7,65.7h60.8c26.3,1.6,39.5,14.8,39.5,37.8C194,143,162.7,166,134.8,164.4z M253.2,164.4
		l11.5-60.8c1.6-8.2,1.6-13.1-9.9-13.1h-24.7l-14.8,74h-31.2l26.3-133.2h31.2l-6.6,34.5h29.6c26.3,1.6,36.2,14.8,32.9,31.2
		L286,164.4H253.2L253.2,164.4z M355.1,164.4h-29.6l-6.6,34.5h-31.2L314,65.7h60.8c26.3,1.6,39.4,14.8,39.4,37.8
		C414.2,143,383,166,355.1,164.4z"/>
	<path d="M141.4,90.4H120l-8.2,49.3h19.7c14.8-1.6,27.9-6.6,29.6-34.5C161.1,95.3,152.9,90.4,141.4,90.4L141.4,90.4z"/>
</g>
</svg>
