<?xml version="1.0" encoding="utf-8"?>
<!-- Generator: Adobe Illustrator 21.1.0, SVG Export Plug-In . SVG Version: 6.00 Build 0)  -->
<svg version="1.1" id="Layer_1" xmlns="http://www.w3.org/2000/svg" xmlns:xlink="http://www.w3.org/1999/xlink" x="0px" y="0px"
	 viewBox="0 0 800 1024" style="enable-background:new 0 0 800 1024;" xml:space="preserve">
<g>
	<g>
		<path d="M67.6,956c176.8,0,352,0,528.5,0c0-117,0-233.2,0-350.4c23.3,0,45.4,0,68.3,0c0,139.2,0,278.3,0,418.4
			c-221.2,0-442.4,0-664.4,0c0-139.3,0-278.3,0-418.4c21.8,0,43.9,0,67.6,0C67.6,722.3,67.6,838.9,67.6,956z"/>
		<g>
			<path d="M800,397.5c-28.8,5-55.7,9.7-84.8,14.8c-23-132.3-45.9-264.3-69-397.6c28.4-4.9,56-9.7,84.8-14.7
				C754.1,132.7,776.9,264.5,800,397.5z"/>
			<path d="M699.5,417.1c-24.1,16.4-47.2,32.3-71.1,48.6c-75.7-111.2-151.1-221.9-227.1-333.4c23.9-16.4,47.1-32.1,71.1-48.6
				C548.2,195,623.4,305.3,699.5,417.1z"/>
			<path d="M563.5,579.1c-7.6,28.2-14.9,55.2-22.4,83.2c-130.1-35-259.2-69.8-389.1-104.7c7.6-28.2,14.9-55.2,22.4-83.2
				C304.4,509.3,433.4,544.1,563.5,579.1z"/>
			<path d="M539.9,691.8c-2.7,29.2-5.3,56.8-8,85.8c-133.8-12.3-266.7-24.6-401.1-37c2.6-28.9,5.2-56.8,7.8-85.8
				C272.7,667.2,405.5,679.4,539.9,691.8z"/>
			<path d="M569.3,555.3c-116.1-68.6-231.1-136.5-347.1-205c14.7-24.9,28.9-49,43.7-74.2C381.8,344.5,496.7,412.4,613,481
				C598.5,505.7,584.3,529.8,569.3,555.3z"/>
			<path d="M527,887.8c-133.8,0-267,0-401.2,0c0-28,0-56,0-84.8c133.3,0,266.8,0,401.2,0C527,830.6,527,858.6,527,887.8z"/>
		</g>
	</g>
</g>
</svg>
