<?xml version="1.0" standalone="no"?>
<!DOCTYPE svg PUBLIC "-//W3C//DTD SVG 1.1//EN" "http://www.w3.org/Graphics/SVG/1.1/DTD/svg11.dtd" >
<svg xmlns="http://www.w3.org/2000/svg">
<metadata>Generated by IcoMoon</metadata>
<defs>
<font id="icomoon" horiz-adv-x="1024">
<font-face units-per-em="1024" ascent="960" descent="-64" />
<missing-glyph horiz-adv-x="1024" />
<glyph unicode="&#x20;" horiz-adv-x="512" d="" />
<glyph unicode="&#xe900;" glyph-name="ANgualrJS" horiz-adv-x="964" d="M389.243 419.287h86.262v204.964l-86.262-204.964zM476.979 627.814l-1.516-3.564-86.262-204.923h187.515l-99.738 208.486zM476.979 627.814l-1.516-3.564-86.262-204.923h187.515l-99.738 208.486zM475.505 957.092l-473.62-168.755 72.376-626.647 401.244-222.74 407.634 225.772 78.766 626.647-486.4 165.724zM680.264 181.514l-64.881 149.996h-264.765l-59.269-148.111-110.264-1.884 295.117 656.63 309.371-658.514-105.308 1.884zM389.243 419.287h187.515l-99.738 208.486-1.516-3.564-86.262-204.923zM389.243 419.287h86.262v204.964l-86.262-204.964z" />
<glyph unicode="&#xe901;" glyph-name="Boostrap" d="M562.708 507.064h-138.076v144.998h127.631c12.165 0 23.88-1.024 35.185-3.031s21.258-5.652 29.942-10.854c8.684-5.202 15.647-12.452 20.849-21.709s7.823-21.135 7.823-35.594c0-26.051-7.823-44.851-23.429-56.443-15.647-11.592-35.635-17.367-59.924-17.367zM671.252 325.571c0-16.22-2.744-29.532-8.274-39.936-5.489-10.404-12.861-18.678-22.159-24.74-9.257-6.062-19.988-10.404-32.113-13.025-12.165-2.621-24.904-3.891-38.216-3.891h-145.9v170.189h148.48c29.532 0 53.248-6.799 71.229-20.398 17.981-13.64 26.952-36.372 26.952-68.198zM891.945 960h-759.89c-72.95 0-132.055-59.105-132.055-132.055v-759.931c0-72.909 59.105-132.055 132.014-132.055h759.931c72.909 0 132.055 59.105 132.055 132.055v759.931c0 72.95-59.105 132.055-132.055 132.055zM789.34 236.564c-12.165-22.856-28.508-41.533-49.070-55.992s-43.991-25.19-70.328-32.113c-26.337-6.963-53.412-10.404-81.183-10.404h-300.442v619.93h291.758c29.532 0 56.443-2.621 80.773-7.823s45.138-13.763 62.505-25.6c17.367-11.878 30.843-27.648 40.387-47.309 9.544-19.702 14.336-43.991 14.336-72.95 0-31.252-7.086-57.303-21.258-78.152s-35.185-37.929-62.956-51.241c38.216-10.977 66.724-30.228 85.524-57.754 18.801-27.484 28.221-60.621 28.221-99.41-0.041-31.252-6.103-58.327-18.268-81.183z" />
<glyph unicode="&#xe902;" glyph-name="codepen-logo" d="M512.002 960c-282.776 0-512.002-229.226-512.002-512.002 0-282.78 229.226-511.998 512.002-511.998 282.771 0 511.998 229.218 511.998 511.998 0 282.776-229.226 512.002-511.998 512.002zM512.002 20.085c-235.954 0-427.911 191.965-427.911 427.913 0 235.946 191.957 427.911 427.911 427.911 235.946 0 427.905-191.965 427.905-427.911 0-235.948-191.957-427.913-427.905-427.913zM828.338 548c-0.057 0.399-0.156 0.782-0.223 1.182-0.133 0.766-0.276 1.532-0.475 2.281-0.117 0.451-0.283 0.883-0.422 1.315-0.217 0.668-0.434 1.333-0.7 1.982-0.186 0.451-0.401 0.899-0.608 1.333-0.287 0.614-0.584 1.214-0.926 1.796-0.25 0.434-0.514 0.852-0.772 1.266-0.369 0.567-0.741 1.118-1.151 1.651-0.299 0.397-0.614 0.799-0.93 1.182-0.434 0.498-0.885 0.997-1.36 1.466-0.356 0.365-0.709 0.731-1.081 1.067-0.5 0.449-1.016 0.883-1.54 1.296-0.406 0.317-0.809 0.635-1.233 0.934-0.16 0.1-0.299 0.233-0.451 0.334l-289.374 192.915c-9.142 6.095-21.041 6.095-30.183 0l-289.372-192.913c-0.15-0.1-0.291-0.233-0.449-0.334-0.426-0.299-0.825-0.616-1.225-0.934-0.532-0.416-1.049-0.85-1.54-1.296-0.383-0.336-0.731-0.7-1.092-1.067-0.473-0.469-0.924-0.969-1.348-1.466-0.326-0.385-0.641-0.784-0.94-1.182-0.399-0.532-0.784-1.083-1.141-1.651-0.274-0.416-0.532-0.831-0.782-1.266-0.334-0.582-0.633-1.182-0.924-1.796-0.209-0.432-0.426-0.883-0.608-1.333-0.266-0.649-0.483-1.315-0.698-1.982-0.143-0.432-0.299-0.864-0.426-1.315-0.199-0.75-0.332-1.516-0.473-2.281-0.066-0.399-0.166-0.782-0.217-1.182-0.158-1.165-0.25-2.347-0.25-3.547v-192.915c0-1.198 0.090-2.38 0.25-3.564 0.051-0.385 0.152-0.782 0.217-1.163 0.141-0.766 0.274-1.532 0.473-2.281 0.127-0.451 0.283-0.885 0.426-1.317 0.215-0.664 0.432-1.331 0.698-1.997 0.182-0.455 0.399-0.887 0.608-1.321 0.293-0.614 0.592-1.212 0.924-1.812 0.25-0.418 0.508-0.831 0.782-1.249 0.356-0.565 0.741-1.116 1.141-1.651 0.299-0.416 0.616-0.801 0.94-1.182 0.426-0.498 0.874-0.999 1.348-1.466 0.358-0.365 0.709-0.731 1.092-1.065 0.492-0.453 1.008-0.885 1.54-1.3 0.399-0.317 0.801-0.635 1.225-0.93 0.158-0.102 0.299-0.236 0.449-0.334l289.372-192.915c4.569-3.045 9.834-4.579 15.096-4.579 5.255 0 10.516 1.534 15.090 4.579l289.372 192.915c0.152 0.098 0.291 0.231 0.451 0.334 0.424 0.297 0.825 0.612 1.233 0.93 0.524 0.416 1.040 0.848 1.54 1.3 0.375 0.332 0.725 0.7 1.081 1.065 0.475 0.467 0.926 0.969 1.36 1.466 0.315 0.383 0.631 0.766 0.93 1.182 0.41 0.535 0.784 1.083 1.151 1.651 0.258 0.418 0.522 0.831 0.772 1.249 0.342 0.6 0.639 1.198 0.926 1.812 0.207 0.434 0.422 0.866 0.608 1.321 0.266 0.664 0.481 1.331 0.7 1.997 0.139 0.432 0.305 0.866 0.422 1.317 0.201 0.75 0.342 1.516 0.475 2.281 0.068 0.383 0.166 0.78 0.223 1.163 0.15 1.184 0.244 2.365 0.244 3.564v192.915c0 1.198-0.094 2.38-0.244 3.545zM539.21 686.524l213.172-142.105-95.218-63.699-117.955 78.903v126.9zM484.792 686.524v-126.9l-117.948-78.903-95.226 63.699 213.174 142.105zM249.836 493.525l68.071-45.529-68.071-45.533v91.062zM484.792 209.467l-213.172 142.107 95.226 63.681 117.948-78.889v-126.898zM512.002 383.629l-96.231 64.367 96.231 64.365 96.225-64.365-96.225-64.367zM539.21 209.467v126.898l117.955 78.889 95.218-63.681-213.172-142.107zM774.164 402.465l-68.061 45.533 68.061 45.529v-91.062z" />
<glyph unicode="&#xe903;" glyph-name="CSS3" d="M157.143 886.857h860l-152-761.714-459.429-152.571-398.857 152.571 40.571 203.429h169.714l-16.571-84 241.143-92 277.714 92 38.857 193.714h-690.286l33.143 169.714h690.857l21.714 109.143h-690.286z" />
<glyph unicode="&#xe904;" glyph-name="databaces" d="M512 960c225.583 0 416.336-93.136 422.791-204.626-6.455-111.48-197.208-204.64-422.791-204.64-225.589 0-416.326 93.139-422.791 204.64 6.465 111.49 197.201 204.626 422.791 204.626zM935.399 146.402c0-114.049-193.879-210.402-423.399-210.402s-423.399 96.353-423.399 210.402v100.612c72.487-87.036 232.805-146.232 423.399-146.232s350.909 59.212 423.399 146.232v-100.612zM935.399 352.742c0-114.045-193.879-210.402-423.399-210.402s-423.399 96.357-423.399 210.402v104.795c72.487-87.016 232.805-146.194 423.399-146.194s350.909 59.216 423.399 146.194v-104.795zM935.399 563.309c0-114.052-193.879-210.399-423.399-210.399s-423.399 96.35-423.399 210.399v92.078c72.487-87.036 232.805-146.191 423.399-146.191s350.909 59.175 423.399 146.191v-92.078z" />
<glyph unicode="&#xe905;" glyph-name="empty-hexagon" horiz-adv-x="887" d="M443.392 960l-443.392-256v-512l443.392-256 443.392 256v512l-443.392 256zM856.064 210.432l-412.672-238.592-411.648 238.592v475.136l411.648 238.592 412.672-237.568v-476.16z" />
<glyph unicode="&#xe906;" glyph-name="fontawesome" d="M129.484 880.891c-14.816 14.805-32.695 22.221-53.627 22.221-20.941 0-38.818-7.422-53.635-22.221-14.809-14.818-22.221-32.697-22.221-53.635 0-28.442 12.636-50.173 37.923-65.184v-750.223c0-5.137 1.872-9.583 5.633-13.334 3.751-3.751 8.197-5.625 13.332-5.625h37.923c5.135 0 9.579 1.86 13.332 5.625 3.755 3.751 5.629 8.197 5.629 13.334v750.223c25.291 15.019 37.923 36.744 37.923 65.184 0 20.932-7.404 38.809-22.211 53.635zM1012.748 815.985c-7.514 7.507-16.408 11.262-26.68 11.262-5.129 0-15.897-4.145-32.292-12.445-16.391-8.3-33.78-17.58-52.149-27.85-18.354-10.272-40.103-19.55-65.176-27.85-25.088-8.3-48.301-12.445-69.624-12.445-19.762 0-37.143 3.755-52.166 11.258-49.777 23.311-93.020 40.696-129.77 52.153-36.738 11.455-76.241 17.18-118.514 17.18-73.090 0-156.249-23.699-249.48-71.106-22.921-11.457-38.523-19.953-46.819-25.482-12.25-9.091-18.377-19.949-18.377-32.593v-439.698c0-10.27 3.761-19.17 11.268-26.665 7.497-7.514 16.393-11.266 26.665-11.266 6.318 0 12.827 1.775 19.55 5.328 107.458 57.683 199.112 86.521 274.964 86.521 28.836 0 56.983-4.346 84.431-13.033 27.458-8.693 50.275-18.178 68.445-28.44 18.184-10.27 39.606-19.762 64.298-28.454 24.704-8.674 49.096-13.026 73.19-13.026 60.844 0 133.737 22.906 218.668 68.742 10.677 5.527 18.467 10.953 23.404 16.289 4.942 5.332 7.414 12.933 7.414 22.821v452.147c0.002 10.268-3.749 19.149-11.25 26.653z" />
<glyph unicode="&#xe907;" glyph-name="github" d="M955.312 692.475c-45.784 78.446-107.887 140.551-186.326 186.331-78.45 45.782-164.095 68.667-256.994 68.667-92.888 0-178.56-22.892-256.994-68.667-78.446-45.777-140.547-107.885-186.331-186.331-45.777-78.443-68.667-164.104-68.667-256.98 0-111.565 32.55-211.887 97.665-300.992 65.108-89.112 149.219-150.774 252.324-184.993 12.002-2.228 20.886-0.661 26.663 4.661 5.779 5.328 8.665 12.002 8.665 19.992 0 1.333-0.114 13.328-0.336 35.998-0.229 22.67-0.336 42.447-0.336 59.322l-15.334-2.653c-9.777-1.791-22.11-2.55-37-2.335-14.883 0.208-30.334 1.768-46.331 4.668-16.004 2.874-30.889 9.541-44.668 19.985-13.772 10.444-23.548 24.116-29.327 40.993l-6.666 15.341c-4.443 10.213-11.439 21.559-20.996 33.995-9.557 12.448-19.221 20.886-28.998 25.33l-4.668 3.341c-3.11 2.221-5.996 4.899-8.665 8.007-2.667 3.108-4.663 6.218-5.996 9.333-1.336 3.117-0.229 5.674 3.332 7.68s9.996 2.979 19.334 2.979l13.328-1.992c8.889-1.782 19.885-7.103 33-15.997 13.109-8.887 23.884-20.44 32.33-34.656 10.227-18.227 22.549-32.115 37-41.672 14.439-9.557 28.998-14.327 43.662-14.327s27.329 1.111 37.999 3.323c10.659 2.223 20.66 5.564 29.997 10.005 4 29.79 14.89 52.675 32.662 68.672-25.33 2.662-48.103 6.671-68.331 12.002-20.216 5.338-41.107 14-62.659 26.012-21.563 11.995-39.452 26.89-53.669 44.659-14.22 17.778-25.89 41.119-34.994 70-9.109 28.893-13.664 62.222-13.664 99.998 0 53.786 17.559 99.556 52.67 137.336-16.448 40.437-14.895 85.768 4.663 135.989 12.889 4.004 32.003 0.999 57.333-8.997 25.334-10.001 43.883-18.568 55.666-25.671 11.782-7.101 21.223-13.118 28.335-17.998 41.341 11.551 84.003 17.328 127.999 17.328s86.667-5.777 128.010-17.328l25.332 15.992c17.323 10.671 37.78 20.45 61.321 29.339 23.555 8.885 41.567 11.332 54.017 7.327 19.992-50.223 21.774-95.552 5.321-135.989 35.109-37.78 52.675-83.562 52.675-137.336 0-37.775-4.572-71.21-13.667-100.324-9.106-29.119-20.877-52.436-35.316-70-14.456-17.561-32.458-32.339-54.010-44.332-21.556-12.002-42.454-20.665-62.671-26.002-20.226-5.338-42.999-9.349-68.328-12.016 23.102-19.992 34.656-51.549 34.656-94.657v-140.652c0-7.99 2.779-14.661 8.341-19.992 5.555-5.321 14.327-6.888 26.329-4.658 103.119 34.214 187.23 95.879 252.336 184.991 65.099 89.105 97.66 189.427 97.66 300.992-0.023 92.864-22.925 178.518-68.681 256.961z" />
<glyph unicode="&#xe908;" glyph-name="google" d="M858.635 832.547c-49.299-49.546-97.781-98.267-146.936-147.663-11.119 6.811-22.859 14.209-34.797 21.273-46.324 27.406-96.166 43.287-150.209 43.631-141.813 0.901-260.878-93.787-296.141-231.114-44.047-171.536 77.662-347.985 249.249-369.973 84.666-10.848 163.689 3.427 233.406 55.129 43.611 32.343 77.666 90.102 83.33 138.467-90.164 0-180.213 0-270.984 0 0 65.989 0 130.913 0 197.032 4.699 0.388 9.633 1.143 14.568 1.149 147.889 0.2 295.779 0.336 443.668 0.448 15.037 0.012 17.688-1.946 20.238-19.312 22.609-153.943-8.84-294.913-107.959-416.283-76.135-93.228-177.279-147.090-296.195-163.61-141.080-19.603-271.29 10.724-385.26 98.115-114.88 88.082-181.296 205.425-198.091 349.241-26.011 222.73 93.896 437.394 298.999 524.667 193.004 82.125 373.995 54.041 538.219-77.452 1.838-1.471 3.739-2.861 4.895-3.745z" />
<glyph unicode="&#xe909;" glyph-name="hexagon" horiz-adv-x="887" d="M443.392 960l-443.392-256v-512l443.392-256 443.392 256v512z" />
<glyph unicode="&#xe90a;" glyph-name="HTML5" d="M60.6 960l82.2-921.6 368.6-102.4 369.8 102.6 82.2 921.4h-902.8zM784.6 658.6h-432.6l10.4-115.8h412l-31-347-232-64.2-231.4 64.2-15.8 177.6h113.4l8-90.2 126-34 126 34 13 146.6h-391.6l-30.4 341.8h566.2l-10.2-113z" />
<glyph unicode="&#xe90b;" glyph-name="javascript" d="M763.133 494.722c-36.794-2.92-67.65-16.158-90.622-38.935-23.653-23.459-34.944-52.076-34.944-88.383 0-54.315 22.29-92.277 72.030-122.354 12.654-7.592 29.883-15.866 59.668-28.715 40.59-17.424 55.678-25.697 65.314-36.015 11.875-12.751 15.185-33.095 7.69-48.669-1.46-3.017-5.256-8.079-8.663-11.486-11.486-11.583-29.591-17.716-52.076-17.716-37.962 0-66.287 15.574-89.065 49.253-3.115 4.478-5.938 8.176-6.327 8.176-0.876 0-74.951-42.732-76.508-44.192-0.973-0.876-0.195-2.92 3.602-9.15 29.591-49.837 75.827-79.039 138.318-87.41 16.353-2.239 47.014-2.141 62.686 0 39.325 5.548 68.818 18.592 91.693 40.785 24.335 23.459 36.307 53.828 36.307 91.887 0 24.335-3.991 43.316-13.043 62.102-6.23 12.849-12.459 21.512-23.167 32.414-20.538 20.83-47.112 36.599-100.161 59.376-40.103 17.229-53.536 24.627-62.394 34.068-8.468 9.052-12.070 19.662-11.291 32.9 0.681 10.513 3.602 17.618 10.026 24.529 9.247 10.026 19.954 14.211 36.502 14.114 18.786 0 30.954-4.867 43.316-17.326 4.38-4.283 10.026-11.194 12.654-15.379 3.017-4.77 5.256-7.398 6.035-7.106 2.531 1.071 73.296 46.82 73.296 47.501 0 0.389-3.602 6.035-7.982 12.654-9.344 14.017-26.184 31.538-37.767 39.227-21.414 14.211-44.289 21.512-74.464 23.751-14.795 1.168-16.742 1.168-30.662 0.097zM460.119 317.859l-0.292-172.094-2.141-8.079c-2.823-10.61-6.132-16.937-11.973-22.777-8.176-8.176-18.689-11.583-36.21-11.681-25.016-0.097-40.006 10.513-57.43 40.298-2.823 4.672-5.354 8.468-5.646 8.371-0.389-0.195-18.008-10.805-39.13-23.556l-38.449-23.361 2.92-5.84c17.424-34.75 47.598-61.031 83.906-73.101 38.351-12.751 87.605-11.583 123.717 2.92 43.316 17.521 68.721 53.731 75.437 107.559 0.584 5.451 0.973 66.287 0.973 180.757v172.581h-95.294l-0.389-171.997z" />
<glyph unicode="&#xe90c;" glyph-name="Jquery" d="M998.805 227.277c-13.82-22.922-26.303-46.783-41.688-68.604-76.772-108.89-181.907-172.541-313.433-192.371-66.178-9.979-132.508-7.857-198.1 4.579-69.746 13.228-132.964 43.214-191.343 82.808-119.55 81.072-201.986 189.695-238.558 330.48-24.386 93.873-22.072 186.853 19.285 276.196 10.78 23.292 25.342 45.11 40.216 66.159 17.196 24.337 36.655 47.075 56.563 69.713-3.375-7.893-6.939-15.714-10.098-23.694-37.179-93.888-37.583-189.26-9.019-284.936 38.868-130.189 119.156-230.037 230.596-305.628 99.967-67.806 210.821-100.244 331.678-96.827 91.813 2.595 178.040 24.681 252.769 80.38 24.921 18.575 46.77 41.27 70.024 62.078 0.367-0.112 0.739-0.222 1.108-0.333zM1024 485.479c-7.513-14.825-14.040-29.874-22.392-43.834-53.706-89.768-133.248-140.99-236.166-157.154-52.851-8.303-105.735-6.77-157.824 3.423-37.721 7.381-72.919 23.65-106.017 43.457-95.812 57.337-164.044 136.989-192.522 246.309-24.27 93.162-11.342 180.839 46.995 259.745 11.403 15.424 22.224 31.278 33.336 46.917 0.379 0.535 0.992 0.902 2.345 2.1-0.418-2.044-0.443-3.358-0.947-4.451-42.287-91.75-38.86-184.009 4.677-272.985 68.189-139.356 181.558-219.78 335.73-239.274 86.489-10.936 167.009 8.228 236.772 62.518 19.973 15.542 36.951 34.924 56.013 53.229zM605.3 936c-4.276-17.406-10.085-34.323-12.4-51.707-7.479-56.16 9.264-106.64 40.688-152.367 47.184-68.662 113.273-106.404 195.819-116.046 26.303-3.071 52.43-2.894 78.281 3.25 29.313 6.968 40.998 14.011 82.194 48.85-2.51-4.832-3.814-7.739-5.46-10.44-38.795-63.714-95.444-95.492-170.116-98.527-127.829-5.199-233.313 91.405-256.971 190.864-13.99 58.816-4.693 113.471 31.083 162.94 5.624 7.771 11.295 15.511 16.882 23.183z" />
<glyph unicode="&#xe90d;" glyph-name="linkedin" horiz-adv-x="957" d="M945.702-64h-211.54v445.685c0 23.353-3.132 42.962-12.936 56.034-9.396 12.528-25.872 19.881-53.174 19.881-88.374 0-110.502-66.996-113.362-77.209v-444.391h-222.366v725.515h222.366v-57.464c14.911 9.668 34.655 20.902 58.757 30.774 35.268 14.502 79.728 26.145 131.609 26.145 41.396 0 109.481-14.774 157.413-80.272 31.523-43.030 54.128-107.983 54.128-204.936v-439.762h-10.894zM111.523 749.277c-29.004 0-55.285 11.847-74.349 30.979-18.996 19.064-30.774 45.413-30.774 74.621 0 29.004 11.779 55.285 30.774 74.349 19.064 18.996 45.345 30.774 74.349 30.774l0.068-0.068c29.004-0.272 55.285-12.187 74.213-31.115 18.996-18.996 30.774-45.209 30.774-73.94 0-29.209-11.779-55.557-30.774-74.689-18.928-19.132-45.277-30.911-74.281-30.911v0zM212.153-64h-212.153v725.515h223.047v-725.515z" />
<glyph unicode="&#xe90e;" glyph-name="materiaze" horiz-adv-x="2005" d="M495.054 929.256c7.262 12.346 16.704 24.208 30.26 30.018 5.568 0.968 11.136 0.484 16.704 0.484 91.264 0 182.771 0 274.035 0-7.989-6.778-15.735-13.799-21.061-22.998-14.041-22.998-23.482-48.658-32.197-74.319-24.692-77.466-41.88-157.11-58.583-236.755-7.504-36.070-14.767-72.382-21.545-108.452-20.819-118.135-42.364-236.028-69.235-352.953-12.83-53.984-25.903-107.968-45.753-160.015-9.199-21.545-18.156-44.543-35.828-60.52-4.115-3.631-8.231-8.231-14.041-7.504-80.613 0-161.468 0-242.080 0-16.461 0.484-32.681-0.968-49.142 0.726 10.894 8.473 20.577 18.64 26.871 30.744 18.156 34.617 29.534 72.14 40.427 109.42 16.946 60.036 30.502 120.798 43.332 181.56 7.989 39.943 17.43 79.644 23.24 119.83 6.536 44.785 16.461 89.086 24.45 133.628 12.588 65.604 25.903 131.208 40.67 196.327 11.862 50.837 23.966 101.432 40.185 151.058 7.989 23.966 16.704 47.69 29.292 69.719zM816.053 959.758c7.020 0 14.041 0.242 21.061 0 15.493-8.231 28.565-21.303 35.828-37.522 9.683-18.398 17.672-37.765 24.934-57.615 24.208-74.803 40.67-151.784 57.131-228.524 14.041-68.751 27.355-137.744 39.943-206.979 0.968-3.631-0.242-8.715 4.6-9.683-17.43-91.022-34.617-182.287-56.405-272.583-11.862-48.658-24.45-97.074-42.364-144.038-9.683-23.482-19.609-49.142-40.185-65.846-13.072-2.905-22.513 7.020-30.502 15.977-13.799 17.672-22.271 38.491-30.502 59.31-27.355 74.561-44.059 152.269-61.004 229.734-12.83 60.278-24.208 121.040-36.070 181.56-5.326 30.744-12.588 61.004-16.704 91.748-0.726 0.484-2.421 1.452-3.147 1.937 6.778 36.070 14.041 72.382 21.545 108.452 16.704 79.644 33.891 159.289 58.583 236.755 8.715 25.661 18.156 51.321 32.197 74.319 5.326 9.199 13.072 16.219 21.061 22.998zM1118.896 917.878c8.715 16.704 19.366 35.344 38.249 41.638 96.106 0.484 192.212 0.242 288.318 0.242-8.957-8.957-18.398-17.914-24.45-29.292-18.64-33.407-29.534-70.445-40.67-107-28.565-100.705-48.658-203.59-67.783-306.474-17.672-101.432-36.554-202.863-58.099-303.811-11.136-50.837-22.756-101.432-37.522-151.542-9.441-30.986-19.366-62.215-34.86-91.022-7.504-13.072-16.219-27.355-30.502-34.133-91.748-0.726-183.739 0-275.487-0.242-5.084 0-10.409 0-15.493 0.726 20.577 16.704 30.502 42.364 40.185 65.846 17.914 46.964 30.502 95.38 42.364 144.038 21.787 90.296 38.975 181.56 56.405 272.583 21.061 117.409 43.090 234.818 71.172 350.774 13.072 50.111 25.661 100.948 48.174 147.669zM1445.462 959.758c7.747 0 15.735 0.242 23.482 0 12.588-6.536 21.545-17.672 29.534-29.050 13.072-20.819 21.303-44.301 29.776-67.298 20.093-61.73 35.102-125.156 48.9-188.581 18.398-85.454 34.375-171.393 50.111-257.331 3.873-20.577 7.747-41.396 10.167-62.215 0.968-0.968 2.905-2.905 3.631-3.631-8.715-12.104-12.104-26.629-16.946-40.427-15.251-49.142-25.176-99.979-33.649-150.574-6.536-39.701-15.493-79.16-27.839-117.409-9.199-28.323-20.335-56.405-38.733-80.129-8.715-11.378-20.577-20.093-33.649-25.903-20.093-2.179-31.955 17.188-41.638 31.47-20.093 35.102-30.986 74.319-42.606 112.567-38.249 141.617-63.183 286.623-90.054 430.661-0.242 2.179-1.452 4.115-3.389 5.084 19.124 102.884 39.217 205.768 67.783 306.474 11.136 36.554 22.029 73.592 40.67 107 6.052 11.378 15.493 20.335 24.45 29.292zM0 409.025c6.294 0.484 12.588 1.452 19.124 1.452 88.117 0 175.992 0 263.868 0 11.136-1.452 22.756-0.484 33.407-5.326 15.493-6.294 29.292-16.946 39.459-30.26 1.21 0.726 3.389 2.663 4.6 3.631-5.81-40.185-15.251-79.887-23.24-119.83-12.83-60.762-26.387-121.524-43.332-181.56-10.894-37.28-22.271-74.803-40.427-109.42-6.294-12.104-15.977-22.271-26.871-30.744-4.115-0.726-7.262 2.179-10.652 4.357-11.378 7.262-17.914 19.851-24.934 31.228-33.165 75.529-36.796 159.047-57.373 237.965-10.409 39.459-23.24 78.676-42.122 114.988-11.62 21.787-25.903 42.606-44.543 59.31-13.799 11.136-29.776 20.093-46.964 24.208zM1662.366 383.849c15.251 17.188 38.007 28.081 61.004 27.113 66.088 0 132.418 0 198.506 0 27.597-0.484 55.436 0.968 83.034-0.726-8.231-5.568-18.156-7.747-26.871-12.346-30.26-13.799-56.163-36.796-72.624-65.604-26.387-45.995-35.586-98.769-43.332-150.574-7.747-50.837-7.504-103.368-23.966-152.753-11.136-34.617-28.081-69.477-57.373-92.233-91.022-0.968-182.044-0.242-272.825-0.484-6.052 0-11.862-0.242-17.672 0.968 13.072 5.81 24.934 14.525 33.649 25.903 18.398 23.724 29.534 51.805 38.733 80.129 12.346 38.249 21.303 77.708 27.839 117.409 8.473 50.595 18.398 101.432 33.649 150.574 4.842 13.799 8.231 28.323 16.946 40.427 7.262 10.652 12.104 22.998 21.303 32.197z" />
<glyph unicode="&#xe90f;" glyph-name="phone" d="M512 896c247 0 448-201 448-448s-201-448-448-448-448 201-448 448 201 448 448 448zM512 960c-282.75 0-512-229.25-512-512s229.25-512 512-512 512 229.25 512 512-229.25 512-512 512v0zM797.438 276.812l-2.876 8.75c-6.75 20.124-29 41.124-49.5 46.75l-75.686 20.688c-20.5 5.562-49.75-1.938-64.81-17l-27.376-27.376c-99.5 26.938-177.562 105-204.438 204.5l27.376 27.376c15 15 22.5 44.25 16.938 64.812l-20.628 75.688c-5.562 20.5-26.688 42.75-46.812 49.5l-8.626 2.876c-20.188 6.75-49-0.062-64-15.126l-41-41c-7.312-7.25-12-28.062-12-28.126-1.376-130.126 49.626-255.438 141.626-347.5 91.75-91.75 216.626-142.69 346.312-141.562 0.688 0 22.126 4.562 29.438 11.876l41 41c15 14.938 21.748 43.75 15.062 63.874z" />
<glyph unicode="&#xe910;" glyph-name="photoshop" d="M1008.544 944.098v-992.98h-989.76v992.98h989.76zM968.544 904.098h-909.76v-912.98h909.76v912.98zM169.6 734.84c36.276 6.6 85.45 11.55 151.55 11.55 72.55 0 124.948-15.674 159.608-45.372 32.246-27.224 53.206-70.946 53.206-122.914 0-52.796-16.122-95.692-45.948-125.388-40.306-40.422-101.57-60.224-171.704-60.224-18.54 0-34.662 0.828-48.366 4.128v-208.29h-98.346v546.51zM267.946 476.64c12.898-4.126 28.214-4.952 48.366-4.952 74.164 0 119.306 37.948 119.306 102.292 0 61.868-41.918 94.042-110.438 94.042-27.41 0-46.756-2.476-57.236-4.95v-186.432zM585.122 290.644c21.766-14.022 64.492-29.696 99.958-29.696 43.532 0 62.876 14.836 62.876 41.234 0 27.224-16.124 40.42-64.49 58.57-76.58 26.4-108.018 69.292-108.018 117.138 0 70.946 57.234 125.39 148.326 125.39 43.528 0 81.418-10.724 104.792-23.922l-20.154-70.944c-16.122 9.898-48.366 23.096-83.028 23.096-35.468 0-54.816-18.148-54.816-42.894 0-25.574 18.54-37.122 68.52-56.096 71.744-25.574 103.99-62.694 104.794-122.088 0-73.422-55.626-122.080-159.612-122.080-47.558 0-90.286 11.55-119.302 28.050l20.154 74.242z" />
<glyph unicode="&#xe911;" glyph-name="php" horiz-adv-x="1967" d="M1481.706 589.573h-87.689l-33.601-202.014h80.723c60.645 6.556 114.324 27.044 121.29 141.369 0.41 40.567-33.191 60.645-80.723 60.645v0zM983.433 960c-543.347 0-983.433-229.058-983.433-511.795s440.086-511.795 983.433-511.795c542.937 0 983.433 229.058 983.433 511.795s-440.496 511.795-983.433 511.795zM552.362 286.348h-121.29l-27.044-141.369h-127.846l107.768 545.806h249.136c107.768-6.556 161.857-60.645 161.857-154.891 0-161.857-128.256-256.102-242.58-249.546zM1037.522 286.348l47.123 249.136c6.556 33.601 6.556 53.679-40.567 53.679h-101.212l-60.645-303.225h-127.846l107.768 545.806h127.846l-27.044-141.369h121.29c107.768-6.556 148.335-60.645 134.812-127.846l-47.123-276.181h-134.403zM1455.072 286.348h-121.29l-27.044-141.369h-127.846l107.768 545.806h249.136c107.768-6.556 161.447-60.645 161.447-154.891 0-161.857-127.846-256.102-242.17-249.546zM579.406 589.573h-87.689l-33.601-202.014h80.723c60.645 6.556 114.324 27.044 121.29 141.369 0 40.567-33.601 60.645-80.723 60.645v0z" />
<glyph unicode="&#xe912;" glyph-name="sass-1" horiz-adv-x="1365" d="M1174.951 371.76c-47.732-0.273-89.074-11.742-123.754-28.781-12.78 25.341-25.614 47.459-27.744 64.007-2.403 19.224-5.352 30.911-2.403 53.849s16.275 55.487 16.275 58.163c-0.273 2.403-2.949 14.145-30.42 14.418s-51.227-5.352-53.849-12.506-7.974-23.757-11.469-40.796c-4.806-25.068-54.941-113.869-83.449-160.509-9.339 18.132-17.312 34.133-18.951 46.913-2.403 19.224-5.352 30.911-2.403 53.849s16.275 55.487 16.275 58.109c-0.273 2.403-2.949 14.145-30.42 14.418s-51.227-5.352-53.849-12.506c-2.676-7.209-5.625-24.248-11.469-40.796-5.625-16.548-72.253-164.823-89.62-203.489-8.793-19.715-16.548-35.444-22.118-46.148-5.625-10.65-0.273-0.819-0.819-1.857-4.806-9.066-7.482-14.145-7.482-14.145v-0.273c-3.714-6.663-7.755-13.053-9.612-13.053-1.311 0-3.987 17.859 0.546 42.38 9.885 51.446 33.86 131.727 33.587 134.676 0 1.311 4.533 15.456-15.456 22.665-19.442 7.209-26.378-4.806-28.017-4.806-1.584 0-2.949-4.26-2.949-4.26s21.627 90.385-41.342 90.385c-39.485 0-93.88-42.926-120.805-82.138-17.039-9.339-53.357-29.054-91.75-50.135-14.691-7.974-29.873-16.548-44.291-24.248l-2.949 3.222c-76.131 81.21-217.197 138.827-211.299 248.163 2.13 39.759 16.002 144.507 270.937 271.483 208.787 103.984 376.013 75.476 405.067 12.015 41.342-90.658-89.347-259.195-306.381-283.443-82.685-9.339-126.157 22.665-137.079 34.679-11.469 12.506-13.053 13.053-17.312 10.65-6.936-3.714-2.676-14.909 0-21.627 6.39-16.821 33.041-46.64 78.425-61.604 39.704-13.053 136.806-20.262 254.116 25.068 131.454 50.954 234.127 192.294 203.981 310.422-30.693 120.204-230.141 159.689-418.72 92.788-112.23-40.032-233.854-102.4-321.29-184.265-104.038-97.103-120.532-181.917-113.596-217.088 24.248-125.611 197.318-207.476 266.677-267.988-3.441-1.857-6.663-3.714-9.612-5.352-34.679-17.039-166.68-86.125-199.721-159.198-37.356-82.685 5.844-142.159 34.679-150.132 89.074-24.794 180.279 19.715 229.594 93.061 49.043 73.346 43.199 168.537 20.535 212.009l-0.819 1.584 27.197 16.002c17.585 10.377 34.953 19.988 50.135 28.29-8.52-23.211-14.691-50.681-17.859-90.658-3.714-46.913 15.456-107.752 40.796-131.727 11.196-10.377 24.521-10.65 32.823-10.65 29.327 0 42.653 24.248 57.344 53.357 18.132 35.444 34.133 76.513 34.133 76.513s-19.988-111.193 34.679-111.193c19.988 0 39.977 25.887 49.043 39.212v-0.273c0 0 0.546 0.819 1.584 2.676 1.092 1.638 2.185 3.331 3.222 5.079v0.546c7.974 13.872 25.887 45.602 52.538 98.14 34.406 67.721 67.447 152.535 67.447 152.535s3.222-20.808 13.053-54.941c5.844-20.262 18.678-42.38 28.508-64.007-7.974-11.196-12.78-17.585-12.78-17.585l0.273-0.273c-6.39-8.52-13.599-17.585-21.081-26.651-27.197-32.55-59.747-69.577-64.007-80.282-5.079-12.506-3.987-21.845 5.844-29.327 7.209-5.352 19.988-6.39 33.587-5.352 24.521 1.584 41.615 7.755 50.135 11.469 13.326 4.806 28.508 12.015 43.199 22.665 26.651 19.715 42.926 47.732 41.342 85.088-0.819 20.535-7.482 40.796-15.729 60.020 2.403 3.441 4.806 6.936 7.209 10.65 42.107 61.604 74.656 129.324 74.656 129.324s3.222-20.808 13.053-54.941c5.079-17.312 15.183-36.263 24.248-54.941-39.485-32.276-64.28-69.577-72.8-94.153-15.729-45.329-3.441-65.864 19.715-70.67 10.377-2.13 25.341 2.676 36.536 7.482 13.872 4.533 30.693 12.288 46.148 23.757 26.651 19.715 52.265 47.186 50.954 84.268-0.819 17.039-5.352 33.86-11.469 49.862 33.587 13.872 77.059 21.845 132.273 15.183 118.675-13.872 142.159-87.982 137.626-118.948-4.533-30.911-29.327-48.005-37.629-53.357-8.247-5.079-10.923-6.936-10.158-10.65 1.092-5.625 4.806-5.352 12.015-4.26 9.885 1.584 62.423 25.341 64.553 82.412 3.222 73.236-66.41 153.245-189.836 152.48v0zM259.741 63.194c-39.212-42.926-94.426-59.201-117.856-45.329-25.341 14.691-15.456 77.879 32.823 123.481 29.327 27.744 67.447 53.357 92.515 69.086 5.625 3.441 14.145 8.52 24.248 14.691 1.584 1.038 2.676 1.584 2.676 1.584 1.857 1.092 3.987 2.403 6.117 3.714 17.859-65.099 0.819-122.17-40.523-167.226v0zM546.406 258.109c-13.599-33.314-42.38-118.948-59.747-114.142-14.909 3.987-23.975 68.813-2.949 132.82 10.65 32.276 33.314 70.67 46.64 85.579 21.627 23.975 45.056 32.003 50.954 22.118 6.936-12.725-26.378-105.568-34.898-126.375zM782.937 145.060c-5.844-2.949-11.196-5.079-13.599-3.495-1.857 1.092 2.403 5.079 2.403 5.079s29.6 31.73 41.342 46.421c6.663 8.52 14.691 18.405 23.211 29.6v-3.222c0-38.393-36.809-63.952-53.357-74.383v0zM965.345 186.675c-4.26 3.222-3.714 13.053 10.65 44.018 5.625 12.288 18.405 32.823 40.523 52.265 2.676-7.974 4.26-15.729 3.987-22.938-0.218-48.005-34.352-65.864-55.159-73.346z" />
<glyph unicode="&#xe913;" glyph-name="stackoverflow" horiz-adv-x="800" d="M67.6 4c176.8 0 352 0 528.5 0 0 117 0 233.2 0 350.4 23.3 0 45.4 0 68.3 0 0-139.2 0-278.3 0-418.4-221.2 0-442.4 0-664.4 0 0 139.3 0 278.3 0 418.4 21.8 0 43.9 0 67.6 0 0-116.7 0-233.3 0-350.4zM800 562.5c-28.8-5-55.7-9.7-84.8-14.8-23 132.3-45.9 264.3-69 397.6 28.4 4.9 56 9.7 84.8 14.7 23.1-132.7 45.9-264.5 69-397.5zM699.5 542.9c-24.1-16.4-47.2-32.3-71.1-48.6-75.7 111.2-151.1 221.9-227.1 333.4 23.9 16.4 47.1 32.1 71.1 48.6 75.8-111.3 151-221.6 227.1-333.4zM563.5 380.9c-7.6-28.2-14.9-55.2-22.4-83.2-130.1 35-259.2 69.8-389.1 104.7 7.6 28.2 14.9 55.2 22.4 83.2 130-34.9 259-69.7 389.1-104.7zM539.9 268.2c-2.7-29.2-5.3-56.8-8-85.8-133.8 12.3-266.7 24.6-401.1 37 2.6 28.9 5.2 56.8 7.8 85.8 134.1-12.4 266.9-24.6 401.3-37zM569.3 404.7c-116.1 68.6-231.1 136.5-347.1 205 14.7 24.9 28.9 49 43.7 74.2 115.9-68.4 230.8-136.3 347.1-204.9-14.5-24.7-28.7-48.8-43.7-74.3zM527 72.2c-133.8 0-267 0-401.2 0 0 28 0 56 0 84.8 133.3 0 266.8 0 401.2 0 0-27.6 0-55.6 0-84.8z" />
<glyph unicode="&#xe914;" glyph-name="telegram" d="M512.088 960c-282.857 0-512.088-229.23-512.088-512.088s229.23-512.088 512.088-512.088 512.088 229.23 512.088 512.088-229.405 512.088-512.088 512.088zM779.698 632.453c-2.979-48.545-93.234-411.317-93.234-411.317s-5.433-21.206-24.711-21.907c-7.010-0.175-15.597 1.227-25.762 9.989-20.329 17.525-67.472 50.998-111.285 81.317l-49.772-39.958c-0.701-0.701-1.402-1.402-2.103-2.103-1.402-1.402-2.629-2.629-4.031-3.856-2.804-2.804-5.608-5.433-8.237-8.062-1.577-1.402-2.979-2.804-4.381-4.206s-2.804-2.629-4.206-3.856c-0.876-0.876-1.753-1.577-2.629-2.454-3.33-3.155-6.484-5.783-8.938-8.062-0.351-0.351-0.701-0.526-0.876-0.876-4.031-3.33-6.66-5.258-7.711-5.258-1.227 0-2.454 0.351-3.68 0.876-6.835 3.505-12.443 15.072-12.443 15.072l-59.936 165.438c-0.701 0-1.052 0.175-1.052 0.175l-127.409 41.535c0 0-15.247 6.134-10.34 20.154 1.052 2.804 2.979 5.258 9.113 9.639 28.216 19.628 522.778 197.334 522.778 197.334s14.020 4.732 22.257 1.577c3.856-1.402 6.134-2.979 8.237-8.938 0.701-2.103 1.227-6.66 1.052-11.216 0-3.33-0.526-6.309-0.701-11.041z" />
</font>
</defs>
</svg>
