<?xml version="1.0" encoding="utf-8"?>
<!-- Generator: Adobe Illustrator 21.1.0, SVG Export Plug-In . SVG Version: 6.00 Build 0)  -->
<svg version="1.1" id="Layer_1" xmlns="http://www.w3.org/2000/svg" xmlns:xlink="http://www.w3.org/1999/xlink" x="0px" y="0px"
	 viewBox="0 0 828.4 423" style="enable-background:new 0 0 828.4 423;" xml:space="preserve">
<style type="text/css">
	.st0{stroke:#000000;stroke-width:9.375000e-02;}
</style>
<path class="st0" d="M204.5,12.7c3-5.1,6.9-10,12.5-12.4c2.3-0.4,4.6-0.2,6.9-0.2c37.7,0,75.5,0,113.2,0c-3.3,2.8-6.5,5.7-8.7,9.5
	c-5.8,9.5-9.7,20.1-13.3,30.7c-10.2,32-17.3,64.9-24.2,97.8c-3.1,14.9-6.1,29.9-8.9,44.8c-8.6,48.8-17.5,97.5-28.6,145.8
	c-5.3,22.3-10.7,44.6-18.9,66.1c-3.8,8.9-7.5,18.4-14.8,25c-1.7,1.5-3.4,3.4-5.8,3.1c-33.3,0-66.7,0-100,0
	c-6.8-0.2-13.5,0.4-20.3-0.3c4.5-3.5,8.5-7.7,11.1-12.7c7.5-14.3,12.2-29.8,16.7-45.2c7-24.8,12.6-49.9,17.9-75
	c3.3-16.5,7.2-32.9,9.6-49.5c2.7-18.5,6.8-36.8,10.1-55.2c5.2-27.1,10.7-54.2,16.8-81.1c4.9-21,9.9-41.9,16.6-62.4
	C195.7,31.6,199.3,21.8,204.5,12.7z"/>
<path class="st0" d="M337.1,0.1c2.9,0,5.8-0.1,8.7,0c6.4,3.4,11.8,8.8,14.8,15.5c4,7.6,7.3,15.6,10.3,23.8
	c10,30.9,16.8,62.7,23.6,94.4c5.8,28.4,11.3,56.9,16.5,85.5c0.4,1.5-0.1,3.6,1.9,4c-7.2,37.6-14.3,75.3-23.3,112.6
	c-4.9,20.1-10.1,40.1-17.5,59.5c-4,9.7-8.1,20.3-16.6,27.2c-5.4,1.2-9.3-2.9-12.6-6.6c-5.7-7.3-9.2-15.9-12.6-24.5
	c-11.3-30.8-18.2-62.9-25.2-94.9c-5.3-24.9-10-50-14.9-75c-2.2-12.7-5.2-25.2-6.9-37.9c-0.3-0.2-1-0.6-1.3-0.8
	c2.8-14.9,5.8-29.9,8.9-44.8c6.9-32.9,14-65.8,24.2-97.8c3.6-10.6,7.5-21.2,13.3-30.7C330.6,5.8,333.8,2.9,337.1,0.1z"/>
<path class="st0" d="M462.2,17.4c3.6-6.9,8-14.6,15.8-17.2c39.7-0.2,79.4-0.1,119.1-0.1c-3.7,3.7-7.6,7.4-10.1,12.1
	c-7.7,13.8-12.2,29.1-16.8,44.2c-11.8,41.6-20.1,84.1-28,126.6c-7.3,41.9-15.1,83.8-24,125.5c-4.6,21-9.4,41.9-15.5,62.6
	c-3.9,12.8-8,25.7-14.4,37.6c-3.1,5.4-6.7,11.3-12.6,14.1c-37.9,0.3-75.9,0-113.8,0.1c-2.1,0-4.3,0-6.4-0.3
	c8.5-6.9,12.6-17.5,16.6-27.2c7.4-19.4,12.6-39.4,17.5-59.5c9-37.3,16.1-75,23.3-112.6c8.7-48.5,17.8-97,29.4-144.9
	C447.7,57.7,452.9,36.7,462.2,17.4z"/>
<path class="st0" d="M597.1,0.1c3.2,0,6.5-0.1,9.7,0c5.2,2.7,8.9,7.3,12.2,12c5.4,8.6,8.8,18.3,12.3,27.8
	c8.3,25.5,14.5,51.7,20.2,77.9c7.6,35.3,14.2,70.8,20.7,106.3c1.6,8.5,3.2,17.1,4.2,25.7c0.4,0.4,1.2,1.2,1.5,1.5
	c-3.6,5-5,11-7,16.7c-6.3,20.3-10.4,41.3-13.9,62.2c-2.7,16.4-6.4,32.7-11.5,48.5c-3.8,11.7-8.4,23.3-16,33.1
	c-3.6,4.7-8.5,8.3-13.9,10.7c-8.3,0.9-13.2-7.1-17.2-13c-8.3-14.5-12.8-30.7-17.6-46.5c-15.8-58.5-26.1-118.4-37.2-177.9
	c-0.1-0.9-0.6-1.7-1.4-2.1c7.9-42.5,16.2-85,28-126.6c4.6-15.1,9.1-30.4,16.8-44.2C589.5,7.5,593.4,3.8,597.1,0.1z"/>
<path class="st0" d="M0,227.6c2.6-0.2,5.2-0.6,7.9-0.6c36.4,0,72.7,0,109,0c4.6,0.6,9.4,0.2,13.8,2.2c6.4,2.6,12.1,7,16.3,12.5
	c0.5-0.3,1.4-1.1,1.9-1.5c-2.4,16.6-6.3,33-9.6,49.5c-5.3,25.1-10.9,50.2-17.9,75c-4.5,15.4-9.2,30.9-16.7,45.2
	c-2.6,5-6.6,9.2-11.1,12.7c-1.7,0.3-3-0.9-4.4-1.8c-4.7-3-7.4-8.2-10.3-12.9c-13.7-31.2-15.2-65.7-23.7-98.3
	c-4.3-16.3-9.6-32.5-17.4-47.5c-4.8-9-10.7-17.6-18.4-24.5C13.7,233,7.1,229.3,0,227.6z"/>
<path class="st0" d="M686.7,238c6.3-7.1,15.7-11.6,25.2-11.2c27.3,0,54.7,0,82,0c11.4,0.2,22.9-0.4,34.3,0.3
	c-3.4,2.3-7.5,3.2-11.1,5.1c-12.5,5.7-23.2,15.2-30,27.1c-10.9,19-14.7,40.8-17.9,62.2c-3.2,21-3.1,42.7-9.9,63.1
	c-4.6,14.3-11.6,28.7-23.7,38.1c-37.6,0.4-75.2,0.1-112.7,0.2c-2.5,0-4.9,0.1-7.3-0.4c5.4-2.4,10.3-6,13.9-10.7
	c7.6-9.8,12.2-21.4,16-33.1c5.1-15.8,8.8-32.1,11.5-48.5c3.5-20.9,7.6-41.9,13.9-62.2c2-5.7,3.4-11.7,7-16.7
	C680.9,246.9,682.9,241.8,686.7,238z"/>
</svg>
